<svg viewBox="0 0 25 23.4312" xmlns="http://www.w3.org/2000/svg" xmlns:xlink="http://www.w3.org/1999/xlink" width="25.000000" height="23.431152" fill="none" customFrame="#000000">
	<g id="Courses">
		<path id="Vector" d="M2.92969 14.954L1.06509 14.5426C0.518604 15.6452 0 16.8837 0 18.3105C0 19.7101 0.497607 20.9336 1.06509 22.0785L7.37305 20.687L7.37305 23.4312L9.57031 22.3325L11.7676 23.4312L11.7676 20.6884L18.0263 22.0792C18.5686 20.9853 19.0918 19.7435 19.0918 18.3105C19.0918 18.0636 19.0735 17.8177 19.0428 17.5781L25 17.5781L25 0L2.92969 0L2.92969 14.954ZM1.90088 20.394C1.71035 19.8902 1.46484 19.0898 1.46484 18.3105C1.46484 17.5312 1.7104 16.7307 1.90088 16.227L7.37305 17.4342L7.37305 19.1869L1.90088 20.394ZM10.3027 21.061L9.57031 20.6948L8.83789 21.061L8.83789 17.5781L10.3027 17.5781L10.3027 21.061ZM17.1913 20.3931L11.7676 19.1878L11.7676 17.4332L17.1913 16.2279C17.3817 16.7318 17.627 17.5317 17.627 18.3105C17.627 19.0895 17.3817 19.8895 17.1913 20.3931ZM23.5352 1.46484L23.5352 16.1133L18.7038 16.1133C18.4637 15.3788 18.2701 15.0319 18.0263 14.5418L10.9548 16.1133L8.18535 16.1133L4.39453 15.277L4.39453 1.46484L23.5352 1.46484Z" fill="rgb(0,0,0)" fill-rule="nonzero" />
		<path id="Vector" d="M8.83789 2.92969L19.0918 2.92969L19.0918 4.39453L8.83789 4.39453L8.83789 2.92969Z" fill="rgb(0,0,0)" fill-rule="nonzero" />
		<path id="Vector" d="M5.85938 8.78906L22.0703 8.78906L22.0703 10.2539L5.85938 10.2539L5.85938 8.78906Z" fill="rgb(0,0,0)" fill-rule="nonzero" />
		<path id="Vector" d="M8.83789 11.7188L19.0918 11.7188L19.0918 13.1836L8.83789 13.1836L8.83789 11.7188Z" fill="rgb(0,0,0)" fill-rule="nonzero" />
		<path id="Vector" d="M10.3027 5.85938L11.7676 5.85938L11.7676 7.32422L10.3027 7.32422L10.3027 5.85938Z" fill="rgb(0,0,0)" fill-rule="nonzero" />
		<path id="Vector" d="M13.2324 5.85938L14.6973 5.85938L14.6973 7.32422L13.2324 7.32422L13.2324 5.85938Z" fill="rgb(0,0,0)" fill-rule="nonzero" />
		<path id="Vector" d="M16.1621 5.85938L17.627 5.85938L17.627 7.32422L16.1621 7.32422L16.1621 5.85938Z" fill="rgb(0,0,0)" fill-rule="nonzero" />
	</g>
</svg>
