<svg viewBox="0 0 46.0001 65" xmlns="http://www.w3.org/2000/svg" xmlns:xlink="http://www.w3.org/1999/xlink" width="46.000122" height="65.000000" fill="none" customFrame="#000000">
	<g id="css3">
		<g id="g12">
			<g id="g14">
				<path id="path16" d="M22.9719 0L4.18634 5.22072L0 52.2258L46.0001 52.2258L41.8093 5.22777L22.9719 0Z" fill="rgb(67,83,173)" fill-rule="nonzero" transform="matrix(1,0,0,-1,0,65)" />
			</g>
			<g id="g18">
				<path id="path20" d="M15.2217 4.22446L18.8025 44.3862L0 44.3862L0 0L15.2217 4.22446Z" fill="rgb(72,95,181)" fill-rule="nonzero" transform="matrix(1,0,0,-1,22.9999,61.0039)" />
			</g>
			<g id="g22">
				<path id="path24" d="M14.4401 6.0053L14.4148 5.99876L8.00143 7.7324L7.59139 12.3302L1.81051 12.3302L2.61724 3.27829L14.4136 0L14.4401 0.00729472L14.4401 6.0053ZM0 32.6461L0.523464 26.8812L14.4401 26.8812L14.4401 32.6461L0 32.6461ZM1.03714 20.9778L1.55321 15.2128L14.4401 15.2128L14.4401 20.9778L1.03714 20.9778Z" fill="rgb(237,237,237)" fill-rule="nonzero" transform="matrix(1,0,0,-1,8.55994,55.0288)" />
			</g>
			<g id="g26">
				<path id="path28" d="M16.7395 8.88665L23.7144 8.88665L23.7144 6.34767L19.6565 6.34767L19.6565 5.83963L23.7144 5.83963L23.7144 0L16.7395 0L16.7395 2.66619L20.7977 2.66619L20.7977 3.17384L16.7397 3.17384L16.7397 8.88665L16.7395 8.88665ZM8.36969 8.88665L15.3444 8.88665L15.3444 6.34767L11.2865 6.34767L11.2865 5.83963L15.3444 5.83963L15.3444 0L8.36989 0L8.36989 2.66619L12.4279 2.66619L12.4279 3.17384L8.36953 3.17384L8.36953 8.88665L8.36969 8.88665ZM0 8.88665L6.97459 8.88665L6.97459 5.96684L2.91679 5.96684L2.91679 3.04663L6.97495 3.04663L6.97495 0.126809L0 0.126809L0 8.88665Z" fill="rgb(16,15,13)" fill-rule="nonzero" transform="matrix(1,0,0,-1,10.8259,8.88672)" />
			</g>
			<g id="g30">
				<path id="path32" d="M13.3862 20.975L14.4257 32.6432L0.000183636 32.6432L0.000183636 26.8784L8.11476 26.8784L7.59085 20.975L0.000183636 20.975L0.000183636 15.2099L7.09149 15.2099L6.42263 7.73294L0 5.99774L0 0L11.8056 3.27544L11.8921 4.24926L13.2457 19.4269L13.3862 20.975Z" fill="rgb(255,255,255)" fill-rule="nonzero" transform="matrix(1,0,0,-1,22.98,55.0261)" />
			</g>
		</g>
	</g>
</svg>
