<svg viewBox="0 0 25 25" xmlns="http://www.w3.org/2000/svg" xmlns:xlink="http://www.w3.org/1999/xlink" width="25.000000" height="25.000000" fill="none" customFrame="#000000">
	<defs>
		<clipPath id="clipPath_0">
			<rect width="25.000000" height="25.000000" x="0.000000" y="0.000000" fill="rgb(255,255,255)" />
		</clipPath>
	</defs>
	<g id="Developer">
		<g id="seo 1" clip-path="url(#clipPath_0)" customFrame="url(#clipPath_0)">
			<rect id="seo 1" width="25.000000" height="25.000000" x="0.000000" y="0.000000" fill="rgb(255,255,255)" fill-opacity="0" />
			<g id="Group">
				<g id="Group">
					<path id="Vector" d="M22.5 3.75L11.25 3.75L11.25 4.58333L22.5 4.58333L22.5 3.75Z" fill="rgb(0,0,0)" fill-rule="evenodd" />
				</g>
			</g>
			<g id="Group">
				<g id="Group">
					<path id="Vector" d="M18.3333 5.41663L11.25 5.41663L11.25 6.24996L18.3333 6.24996L18.3333 5.41663Z" fill="rgb(0,0,0)" fill-rule="evenodd" />
				</g>
			</g>
			<g id="Group">
				<g id="Group">
					<path id="Vector" d="M18.3333 7.08337L11.25 7.08337L11.25 7.91671L18.3333 7.91671L18.3333 7.08337Z" fill="rgb(0,0,0)" fill-rule="evenodd" />
				</g>
			</g>
			<g id="Group">
				<g id="Group">
					<path id="Vector" d="M22.4999 2.08337L14.5833 2.08337L14.5833 2.91671L22.4999 2.91671L22.4999 2.08337Z" fill="rgb(0,0,0)" fill-rule="evenodd" />
				</g>
			</g>
			<g id="Group">
				<g id="Group">
					<path id="Vector" d="M13.7501 2.08337L12.9167 2.08337L12.9167 2.91671L13.7501 2.91671L13.7501 2.08337Z" fill="rgb(0,0,0)" fill-rule="evenodd" />
				</g>
			</g>
			<g id="Group">
				<g id="Group">
					<path id="Vector" d="M12.9166 16.6667L12.0833 16.6667L12.0833 17.5001L12.9166 17.5001L12.9166 16.6667Z" fill="rgb(0,0,0)" fill-rule="evenodd" />
				</g>
			</g>
			<g id="Group">
				<g id="Group">
					<path id="Vector" d="M6.96124 2.79461L6.37207 2.20544L5.53874 3.03878C5.37608 3.20149 5.37608 3.46524 5.53874 3.62794L6.37207 4.46128L6.96124 3.87211L6.42249 3.33336L6.96124 2.79461Z" fill="rgb(0,0,0)" fill-rule="nonzero" />
				</g>
			</g>
			<g id="Group">
				<g id="Group">
					<path id="Vector" d="M10.2946 3.03878L9.46124 2.20544L8.87207 2.79461L9.41082 3.33336L8.87207 3.87211L9.46124 4.46128L10.2946 3.62794C10.4572 3.46524 10.4572 3.20149 10.2946 3.03878Z" fill="rgb(0,0,0)" fill-rule="nonzero" />
				</g>
			</g>
			<g id="Group">
				<g id="Group">
					<path id="Vector" d="M2.63542 0L0 0L0 0.832917L2.63542 0.832917L2.63542 0Z" fill="rgb(0,0,0)" fill-rule="evenodd" transform="matrix(0.3165,-0.9486,0.9486,0.3165,7.10425,4.45105)" />
				</g>
			</g>
			<g id="Group">
				<g id="Group">
					<path id="Vector" d="M21.6667 12.9167L21.6667 9.58333L20.8334 9.58333L20.8334 12.9167L20 12.9167L20 8.75L19.1667 8.75L19.1667 12.9167L18.3334 12.9167L18.3334 10.8333L17.5 10.8333L17.5 12.9167L16.6667 12.9167L16.6667 10.4167L15.8334 10.4167L15.8334 12.9167L15 12.9167L15 11.25L14.1667 11.25L14.1667 12.9167L13.3334 12.9167L13.3334 13.75L22.5 13.75L22.5 12.9167L21.6667 12.9167Z" fill="rgb(0,0,0)" fill-rule="nonzero" />
				</g>
			</g>
			<g id="Group">
				<g id="Group">
					<path id="Vector" d="M22.0834 0L2.91675 0C1.53659 0.00135417 0.418102 1.11984 0.416748 2.5L0.416748 10.6775L0.416748 10.6812L0.416748 15.4167L0.416748 16.6667C0.418102 18.0468 1.53659 19.1653 2.91675 19.1667L8.07591 19.1667L6.40925 22.5L4.16675 22.5C3.47638 22.5 2.91675 23.0596 2.91675 23.75C2.91675 24.4404 3.47638 25 4.16675 25L20.8334 25C21.5238 25 22.0834 24.4404 22.0834 23.75C22.0834 23.0596 21.5238 22.5 20.8334 22.5L18.5909 22.5L16.9242 19.1667L22.0834 19.1667C23.4636 19.1653 24.5821 18.0468 24.5834 16.6667L24.5834 2.5C24.5821 1.11984 23.4636 0.00135417 22.0834 0ZM1.25008 5.8625L2.19716 6.99C2.27633 7.08432 2.39321 7.13875 2.51633 7.13875L3.79175 7.13875C3.91487 7.13875 4.03175 7.08432 4.11091 6.99L5.05841 5.8625L5.99341 6.16625L6.09675 7.63417C6.10529 7.75693 6.16769 7.86964 6.26716 7.94208L7.29925 8.69208C7.39909 8.76417 7.52555 8.7887 7.64508 8.75917L9.0755 8.40375L9.65383 9.19917L8.87425 10.4492C8.80966 10.554 8.79472 10.6819 8.83342 10.7987L9.228 12.0117C9.26597 12.1286 9.35362 12.2229 9.46758 12.2692L10.8334 12.8229L10.8334 13.8062L9.46675 14.36C9.35253 14.406 9.26472 14.5006 9.22716 14.6179L9.10216 15L6.70175 15C7.6355 13.045 6.80758 10.7032 4.85258 9.76943C3.7043 9.22099 2.36128 9.26359 1.25008 9.88375L1.25008 5.8625ZM1.25008 10.875C2.59779 9.82359 4.54269 10.0638 5.59404 11.4116C6.40581 12.4521 6.46847 13.8929 5.75008 15L1.25008 15L1.25008 10.875ZM20.8334 23.3333C21.0635 23.3333 21.2501 23.5199 21.2501 23.75C21.2501 23.9801 21.0635 24.1667 20.8334 24.1667L4.16675 24.1667C3.93664 24.1667 3.75008 23.9801 3.75008 23.75C3.75008 23.5199 3.93664 23.3333 4.16675 23.3333L20.8334 23.3333ZM17.6592 22.5L7.34091 22.5L9.00758 19.1667L15.9926 19.1667L17.6592 22.5ZM23.7501 16.6667C23.7501 17.5871 23.0039 18.3333 22.0834 18.3333L2.91675 18.3333C1.99628 18.3333 1.25008 17.5871 1.25008 16.6667L1.25008 15.8333L5.96758 15.8333L5.97133 15.8333L23.7501 15.8333L23.7501 16.6667ZM23.7501 15L10.1063 15L11.4067 14.4729C11.5638 14.4092 11.6666 14.2566 11.6667 14.0871L11.6667 12.5417C11.6668 12.372 11.564 12.2192 11.4067 12.1554L9.95841 11.5696L9.68425 10.7258L10.5101 9.40083C10.5997 9.25688 10.5931 9.07302 10.4934 8.93583L9.58508 7.68583C9.48534 7.54849 9.31232 7.48536 9.14758 7.52625L7.63258 7.90125L6.91675 7.38125L6.80716 5.82708C6.79524 5.65766 6.68164 5.5124 6.52008 5.46L5.05133 4.9825C4.88972 4.93104 4.71305 4.98182 4.60341 5.11125L3.6005 6.305L2.71175 6.305L1.70841 5.11125C1.59873 4.98167 1.4218 4.93083 1.26008 4.9825L1.25008 4.98625L1.25008 2.5C1.25008 1.57953 1.99628 0.833333 2.91675 0.833333L22.0834 0.833333C23.0039 0.833333 23.7501 1.57953 23.7501 2.5L23.7501 15Z" fill="rgb(0,0,0)" fill-rule="nonzero" />
				</g>
			</g>
		</g>
	</g>
</svg>
