<svg viewBox="0 0 45.7746 65" xmlns="http://www.w3.org/2000/svg" xmlns:xlink="http://www.w3.org/1999/xlink" width="45.774643" height="65.000000" fill="none" customFrame="#000000">
	<g id="g12">
		<path id="path14" d="M4.16571 5.22072L0 52.226L45.7746 52.226L41.6044 5.22815L22.8592 0L4.16571 5.22072Z" fill="rgb(229,61,32)" fill-rule="nonzero" transform="matrix(1,0,0,-1,0,65)" />
		<path id="path16" d="M0 0L15.147 4.2246L18.7107 44.3865L0 44.3865L0 0Z" fill="rgb(241,81,35)" fill-rule="nonzero" transform="matrix(1,0,0,-1,22.8873,61.0039)" />
		<path id="path18" d="M14.3695 5.76482L6.78653 5.76482L6.26278 11.6684L14.3695 11.6684L14.3695 17.4334L14.3496 17.4334L0 17.4334L0.137214 15.8868L1.54567 0L14.3695 0L14.3695 5.76482Z" fill="rgb(237,237,237)" fill-rule="nonzero" transform="matrix(1,0,0,-1,8.51785,39.8159)" />
		<path id="path20" d="M12.5678 6.00538L12.5427 5.99858L6.16066 7.73234L5.75251 12.3301L2.65139 12.3301L0 12.3301L0.802899 3.27825L12.5414 0L12.5678 0.00733882L12.5678 6.00538Z" fill="rgb(237,237,237)" fill-rule="nonzero" transform="matrix(1,0,0,-1,10.3195,55.0286)" />
		<path id="path22" d="M0 8.76534L2.91223 8.76534L2.91223 5.87082L5.57611 5.87082L5.57611 8.76534L8.48846 8.76534L8.48846 0L5.57623 0L5.57623 2.93509L2.91236 2.93509L2.91236 0L0.000211031 0L0.000211031 8.76534L0 8.76534Z" fill="rgb(16,15,13)" fill-rule="nonzero" transform="matrix(1,0,0,-1,4.25882,8.76538)" />
		<path id="path24" d="M2.56375 5.8586L0 5.8586L0 8.76534L8.04101 8.76534L8.04101 5.8586L5.4761 5.8586L5.4761 0L2.56396 0L2.56396 5.8586L2.56375 5.8586Z" fill="rgb(16,15,13)" fill-rule="nonzero" transform="matrix(1,0,0,-1,14.0131,8.76538)" />
		<path id="path26" d="M0 8.76534L3.03661 8.76534L4.90452 5.68549L6.77054 8.76534L9.80831 8.76534L9.80831 0L6.9081 0L6.9081 4.34459L4.90452 1.22799L4.85448 1.22799L2.84954 4.34459L2.84954 0L0 0L0 8.76534Z" fill="rgb(16,15,13)" fill-rule="nonzero" transform="matrix(1,0,0,-1,23.3303,8.76538)" />
		<path id="path28" d="M0 8.76534L2.91309 8.76534L2.91309 2.89728L7.0084 2.89728L7.0084 0L0 0L0 8.76534Z" fill="rgb(16,15,13)" fill-rule="nonzero" transform="matrix(1,0,0,-1,34.588,8.76538)" />
		<path id="path30" d="M0 20.9748L0 15.21L7.05644 15.21L6.39133 7.73317L0 5.99772L0 0L11.7478 3.27547L11.834 4.24941L13.1807 19.4268L13.3204 20.9748L11.7762 20.9748L0 20.9748Z" fill="rgb(255,255,255)" fill-rule="nonzero" transform="matrix(1,0,0,-1,22.8675,55.0259)" />
		<path id="path32" d="M0 5.76503L0 0L13.8235 0L13.8419 0L13.9568 1.29586L14.2179 4.21841L14.3549 5.76503L0 5.76503Z" fill="rgb(255,255,255)" fill-rule="nonzero" transform="matrix(1,0,0,-1,22.8675,28.1477)" />
	</g>
</svg>
