<svg viewBox="0 0 103.859 64.8125" xmlns="http://www.w3.org/2000/svg" xmlns:xlink="http://www.w3.org/1999/xlink" width="103.859131" height="64.812500" fill="none" customFrame="#000000">
	<defs>
		<filter id="pixso_custom_mask_type_alpha">
			<feColorMatrix type="matrix" values="0 0 0 0 1 0 0 0 0 1 0 0 0 0 1 0 0 0 1 0 " />
		</filter>
		<linearGradient id="paint_linear_0" x1="42.3750763" x2="31.2471619" y1="19.3108215" y2="36.467514" gradientUnits="userSpaceOnUse">
			<stop stop-color="rgb(65,135,63)" offset="0" stop-opacity="1" />
			<stop stop-color="rgb(65,139,61)" offset="0.328799993" stop-opacity="1" />
			<stop stop-color="rgb(65,150,55)" offset="0.635200024" stop-opacity="1" />
			<stop stop-color="rgb(63,169,45)" offset="0.931900024" stop-opacity="1" />
			<stop stop-color="rgb(63,174,42)" offset="1" stop-opacity="1" />
		</linearGradient>
		<linearGradient id="paint_linear_1" x1="36.8478317" x2="64.2107544" y1="29.0329971" y2="14.4455214" gradientUnits="userSpaceOnUse">
			<stop stop-color="rgb(65,135,63)" offset="0.137600005" stop-opacity="1" />
			<stop stop-color="rgb(84,160,68)" offset="0.403200001" stop-opacity="1" />
			<stop stop-color="rgb(102,184,72)" offset="0.71359998" stop-opacity="1" />
			<stop stop-color="rgb(108,192,74)" offset="0.908100009" stop-opacity="1" />
		</linearGradient>
		<linearGradient id="paint_linear_2" x1="28.9907703" x2="47.2869301" y1="12.857296" y2="12.857296" gradientUnits="userSpaceOnUse">
			<stop stop-color="rgb(108,192,74)" offset="0.0919164568" stop-opacity="1" />
			<stop stop-color="rgb(102,184,72)" offset="0.28639999" stop-opacity="1" />
			<stop stop-color="rgb(84,160,68)" offset="0.596800029" stop-opacity="1" />
			<stop stop-color="rgb(65,135,63)" offset="0.862399995" stop-opacity="1" />
		</linearGradient>
		<linearGradient id="paint_linear_3" x1="26.9184303" x2="49.7883377" y1="27.6693535" y2="27.6693535" gradientUnits="userSpaceOnUse">
			<stop stop-color="rgb(108,192,74)" offset="0.0919164568" stop-opacity="1" />
			<stop stop-color="rgb(102,184,72)" offset="0.28639999" stop-opacity="1" />
			<stop stop-color="rgb(84,160,68)" offset="0.596800029" stop-opacity="1" />
			<stop stop-color="rgb(65,135,63)" offset="0.862399995" stop-opacity="1" />
		</linearGradient>
		<linearGradient id="paint_linear_4" x1="42.8812981" x2="49.7424507" y1="34.2969666" y2="34.2969666" gradientUnits="userSpaceOnUse">
			<stop stop-color="rgb(108,192,74)" offset="0.0919164568" stop-opacity="1" />
			<stop stop-color="rgb(102,184,72)" offset="0.28639999" stop-opacity="1" />
			<stop stop-color="rgb(84,160,68)" offset="0.596800029" stop-opacity="1" />
			<stop stop-color="rgb(65,135,63)" offset="0.862399995" stop-opacity="1" />
		</linearGradient>
		<linearGradient id="paint_linear_5" x1="26.9184532" x2="49.7883644" y1="37.3302269" y2="37.3302269" gradientUnits="userSpaceOnUse">
			<stop stop-color="rgb(108,192,74)" offset="0.0919164568" stop-opacity="1" />
			<stop stop-color="rgb(102,184,72)" offset="0.28639999" stop-opacity="1" />
			<stop stop-color="rgb(84,160,68)" offset="0.596800029" stop-opacity="1" />
			<stop stop-color="rgb(65,135,63)" offset="0.862399995" stop-opacity="1" />
		</linearGradient>
		<linearGradient id="paint_linear_6" x1="53.1202393" x2="47.1110344" y1="18.7598858" y2="49.6577225" gradientUnits="userSpaceOnUse">
			<stop stop-color="rgb(65,135,63)" offset="0" stop-opacity="1" />
			<stop stop-color="rgb(65,139,61)" offset="0.328799993" stop-opacity="1" />
			<stop stop-color="rgb(65,150,55)" offset="0.635200024" stop-opacity="1" />
			<stop stop-color="rgb(63,169,45)" offset="0.931900024" stop-opacity="1" />
			<stop stop-color="rgb(63,174,42)" offset="1" stop-opacity="1" />
		</linearGradient>
	</defs>
	<mask id="mask_0" width="22.138149" height="25.707296" x="27.279419" y="14.815430" maskUnits="userSpaceOnUse">
		<g filter="url(#pixso_custom_mask_type_alpha)">
			<g id="mask 3">
				<path id="Vector" d="M38.9471 14.9769C38.5715 14.7616 38.1255 14.7616 37.7498 14.9769L27.8663 20.7907C27.4907 21.006 27.2794 21.4127 27.2794 21.8434L27.2794 33.4948C27.2794 33.9254 27.5142 34.3322 27.8663 34.5475L37.7498 40.3612C38.1255 40.5766 38.5715 40.5766 38.9471 40.3612L48.8307 34.5475C49.2063 34.3322 49.4176 33.9254 49.4176 33.4948L49.4176 21.8434C49.4176 21.4127 49.1828 21.006 48.8307 20.7907L38.9471 14.9769Z" fill="rgb(255,255,255)" fill-rule="nonzero" />
			</g>
		</g>
	</mask>
	<g id="Node.js">
		<path id="Vector" d="M51.3661 64.8125C51.014 64.8125 50.6853 64.7168 50.3801 64.5493L47.2578 62.6593C46.7883 62.3961 47.023 62.3004 47.1639 62.2525C47.7978 62.0372 47.9151 61.9894 48.5725 61.6066C48.6429 61.5587 48.7368 61.5826 48.8072 61.6305L51.2018 63.0899C51.2957 63.1378 51.4131 63.1378 51.4835 63.0899L60.8506 57.5633C60.9445 57.5154 60.9914 57.4197 60.9914 57.3001L60.9914 46.2707C60.9914 46.1511 60.9445 46.0554 60.8506 46.0075L51.4835 40.5048C51.3896 40.457 51.2722 40.457 51.2018 40.5048L41.8348 46.0075C41.7409 46.0554 41.6939 46.175 41.6939 46.2707L41.6939 57.3001C41.6939 57.3958 41.7409 57.5154 41.8348 57.5633L44.3937 59.0705C45.7788 59.7883 46.6474 58.9509 46.6474 58.1135L46.6474 47.2277C46.6474 47.0842 46.7648 46.9406 46.9291 46.9406L48.1264 46.9406C48.2673 46.9406 48.4081 47.0602 48.4081 47.2277L48.4081 58.1135C48.4081 60.0036 47.3987 61.1042 45.6379 61.1042C45.098 61.1042 44.6754 61.1041 43.4781 60.506L41.0131 59.0705C40.4027 58.7117 40.0271 58.0418 40.0271 57.324L40.0271 46.2946C40.0271 45.5769 40.4027 44.907 41.0131 44.5481L50.3801 39.0215C50.9671 38.6865 51.7652 38.6865 52.3522 39.0215L61.7192 44.5481C62.3296 44.907 62.7052 45.5769 62.7052 46.2946L62.7052 57.324C62.7052 58.0418 62.3296 58.7117 61.7192 59.0705L52.3522 64.5972C52.047 64.7407 51.6948 64.8125 51.3661 64.8125ZM54.2537 57.2283C50.1454 57.2283 49.3002 55.3143 49.3002 53.6874C49.3002 53.5439 49.4176 53.4003 49.582 53.4003L50.8027 53.4003C50.9436 53.4003 51.061 53.496 51.061 53.6396C51.2488 54.9076 51.7887 55.5296 54.2772 55.5296C56.2492 55.5296 57.0944 55.0751 57.0944 53.9985C57.0944 53.3764 56.8596 52.9218 53.7842 52.6108C51.2253 52.3476 49.6289 51.7734 49.6289 49.692C49.6289 47.7541 51.2253 46.6057 53.9016 46.6057C56.9066 46.6057 58.3856 47.6584 58.5734 49.9552C58.5734 50.0269 58.5499 50.0987 58.5029 50.1705C58.456 50.2183 58.3856 50.2662 58.3151 50.2662L57.0944 50.2662C56.977 50.2662 56.8596 50.1705 56.8361 50.0508C56.5544 48.735 55.8266 48.3043 53.9016 48.3043C51.7418 48.3043 51.4835 49.0699 51.4835 49.6441C51.4835 50.3379 51.7887 50.5533 54.6998 50.9361C57.5874 51.3189 58.949 51.8691 58.949 53.9267C58.9255 56.0321 57.2352 57.2283 54.2537 57.2283Z" fill="rgb(83,158,67)" fill-rule="nonzero" />
		<path id="Vector" d="M22.3025 21.676C22.3025 21.2454 22.0677 20.8386 21.6921 20.6233L11.7381 14.7856C11.5738 14.6899 11.386 14.6421 11.1982 14.6182L11.1043 14.6182C10.9165 14.6182 10.7287 14.6899 10.5643 14.7856L0.610384 20.6233C0.234763 20.8386 0 21.2454 0 21.676L0.0234763 37.3707C0.0234763 37.5861 0.140858 37.8014 0.328668 37.8971C0.516479 38.0167 0.751242 38.0167 0.915576 37.8971L6.8316 34.4519C7.20722 34.2366 7.44199 33.8299 7.44199 33.3992L7.44199 26.0543C7.44199 25.6236 7.67675 25.2169 8.05237 25.0016L10.5643 23.5182C10.7521 23.3986 10.9634 23.3507 11.1747 23.3507C11.386 23.3507 11.5973 23.3986 11.7616 23.5182L14.2736 25.0016C14.6492 25.2169 14.884 25.6236 14.884 26.0543L14.884 33.3992C14.884 33.8299 15.1187 34.2366 15.4944 34.4519L21.4104 37.8971C21.5982 38.0167 21.833 38.0167 22.0208 37.8971C22.2086 37.8014 22.326 37.5861 22.326 37.3707L22.3025 21.676Z" fill="rgb(51,51,51)" fill-rule="nonzero" />
		<path id="Vector" d="M70.1472 0.0717747C69.9594 -0.0239249 69.7246 -0.0239249 69.5602 0.0717747C69.3724 0.191399 69.2551 0.382798 69.2551 0.598122L69.2551 16.1493C69.2551 16.2929 69.1846 16.4364 69.0438 16.5321C68.9029 16.6039 68.7621 16.6039 68.6212 16.5321L66.1327 15.0727C65.7571 14.8574 65.3111 14.8574 64.9354 15.0727L54.9815 20.9343C54.6059 21.1496 54.3711 21.5563 54.3711 21.987L54.3711 33.6862C54.3711 34.1169 54.6059 34.5236 54.9815 34.7389L64.9354 40.6005C65.3111 40.8159 65.7571 40.8159 66.1327 40.6005L76.0867 34.7389C76.4623 34.5236 76.6971 34.1169 76.6971 33.6862L76.6971 4.5218C76.6971 4.06723 76.4623 3.66051 76.0867 3.44518L70.1472 0.0717747ZM69.2316 29.8343C69.2316 29.954 69.1846 30.0497 69.0907 30.0975L65.6867 32.1072C65.5928 32.1551 65.4754 32.1551 65.3815 32.1072L61.9774 30.0975C61.8835 30.0497 61.8366 29.93 61.8366 29.8343L61.8366 25.815C61.8366 25.6953 61.8835 25.5996 61.9774 25.5518L65.3815 23.5421C65.4754 23.4942 65.5928 23.4942 65.6867 23.5421L69.0907 25.5518C69.1846 25.5996 69.2316 25.7193 69.2316 25.815L69.2316 29.8343Z" fill="rgb(51,51,51)" fill-rule="nonzero" />
		<g id="Group">
			<path id="Vector" d="M103.272 25.7192C103.648 25.5039 103.859 25.0972 103.859 24.6665L103.859 21.8194C103.859 21.3888 103.624 20.9821 103.272 20.7667L93.3887 14.9291C93.0131 14.7137 92.567 14.7137 92.1914 14.9291L82.2375 20.7907C81.8618 21.006 81.6271 21.4127 81.6271 21.8434L81.6271 33.5426C81.6271 33.9733 81.8618 34.38 82.2375 34.5953L92.121 40.3373C92.4966 40.5526 92.9426 40.5526 93.2948 40.3373L99.2812 36.94C99.4691 36.8443 99.5864 36.629 99.5864 36.4136C99.5864 36.1983 99.4691 35.983 99.2812 35.8873L89.2803 30.0257C89.0925 29.9061 88.9752 29.7147 88.9752 29.4993L88.9752 25.8388C88.9752 25.6235 89.0925 25.4082 89.2803 25.3125L92.4027 23.4942C92.5905 23.3746 92.8253 23.3746 93.0131 23.4942L96.1354 25.3125C96.3232 25.4321 96.4406 25.6235 96.4406 25.8388L96.4406 28.7098C96.4406 28.9251 96.558 29.1405 96.7458 29.2362C96.9336 29.3558 97.1684 29.3558 97.3562 29.2362L103.272 25.7192Z" fill="rgb(51,51,51)" fill-rule="nonzero" />
			<path id="Vector" d="M92.6375 25.1689C92.7079 25.1211 92.8018 25.1211 92.8723 25.1689L94.7738 26.2934C94.8443 26.3413 94.8912 26.413 94.8912 26.5087L94.8912 28.7577C94.8912 28.8534 94.8443 28.9252 94.7738 28.973L92.8723 30.0975C92.8018 30.1453 92.7079 30.1453 92.6375 30.0975L90.7359 28.973C90.6655 28.9252 90.6185 28.8534 90.6185 28.7577L90.6185 26.5087C90.6185 26.413 90.6655 26.3413 90.7359 26.2934L92.6375 25.1689Z" fill="rgb(83,158,67)" fill-rule="nonzero" />
		</g>
		<g id="Group" mask="url(#mask_0)">
			<path id="Vector" d="M38.9471 14.9769C38.5715 14.7616 38.1255 14.7616 37.7498 14.9769L27.8663 20.7907C27.4907 21.006 27.2794 21.4127 27.2794 21.8434L27.2794 33.4948C27.2794 33.9254 27.5142 34.3322 27.8663 34.5475L37.7498 40.3612C38.1255 40.5766 38.5715 40.5766 38.9471 40.3612L48.8307 34.5475C49.2063 34.3322 49.4176 33.9254 49.4176 33.4948L49.4176 21.8434C49.4176 21.4127 49.1828 21.006 48.8307 20.7907L38.9471 14.9769Z" fill="url(#paint_linear_0)" fill-rule="nonzero" />
			<g id="Group">
				<path id="Vector" d="M37.7264 14.9771L27.8194 20.7908C27.4438 21.0062 27.1855 21.4129 27.1855 21.8435L27.1855 33.495C27.1855 33.7821 27.3029 34.0452 27.4907 34.2606L38.6185 14.8335C38.3368 14.7857 38.0081 14.8096 37.7264 14.9771Z" fill-rule="nonzero" />
				<path id="Vector" d="M38.689 40.481C38.7829 40.457 38.8768 40.4092 38.9707 40.3613L48.8777 34.5476C49.2533 34.3323 49.4881 33.9255 49.4881 33.4949L49.4881 21.8435C49.4881 21.5325 49.3472 21.2214 49.1359 21.0061L38.689 40.481Z" fill-rule="nonzero" />
				<path id="Vector" d="M48.8542 20.7901L38.9237 14.9763C38.8298 14.9285 38.7124 14.8806 38.6185 14.8567L27.4907 34.2837C27.5846 34.4033 27.702 34.499 27.8194 34.5708L37.7499 40.3845C38.0316 40.552 38.3602 40.5999 38.6654 40.5042L49.1124 21.0293C49.042 20.9336 48.9481 20.8618 48.8542 20.7901Z" fill="url(#paint_linear_1)" fill-rule="nonzero" />
			</g>
			<g id="Group">
				<g id="Group">
					<path id="Vector" d="M49.4881 33.4947L49.4881 21.8432C49.4881 21.4126 49.2298 21.0059 48.8542 20.7906L38.9237 14.9768C38.8063 14.905 38.689 14.8572 38.5481 14.8333L49.4176 33.7578C49.4646 33.6861 49.4881 33.5904 49.4881 33.4947Z" fill-rule="nonzero" />
					<path id="Vector" d="M27.8194 20.7905C27.4438 21.0058 27.1855 21.4126 27.1855 21.8432L27.1855 33.4946C27.1855 33.9253 27.4673 34.332 27.8194 34.5473L37.7499 40.3611C37.9846 40.5046 38.2429 40.5525 38.5246 40.5046L27.8898 20.7666L27.8194 20.7905Z" fill-rule="nonzero" />
					<path id="Vector" d="M37.4213 12.8477L37.2804 12.9194L37.4682 12.9194L37.4213 12.8477Z" fill="url(#paint_linear_2)" fill-rule="evenodd" />
					<path id="Vector" d="M48.8776 34.5474C49.1593 34.3799 49.3706 34.0928 49.4645 33.7818L38.5715 14.8333C38.2898 14.7854 37.9846 14.8094 37.7264 14.9768L27.8663 20.7667L38.5011 40.5286C38.642 40.5047 38.8063 40.4568 38.9471 40.3851L48.8776 34.5474Z" fill="url(#paint_linear_3)" fill-rule="evenodd" />
					<path id="Vector" d="M49.7932 34.3559L49.7228 34.2363L49.7228 34.4038L49.7932 34.3559Z" fill="url(#paint_linear_4)" fill-rule="evenodd" />
					<path id="Vector" d="M48.8776 34.5473L38.9706 40.3611C38.8298 40.4328 38.6889 40.4807 38.5246 40.5046L38.7124 40.8635L49.6993 34.3799L49.6993 34.2363L49.4176 33.7578C49.3707 34.0928 49.1594 34.3799 48.8776 34.5473Z" fill="url(#paint_linear_5)" fill-rule="evenodd" />
					<path id="Vector" d="M48.8776 34.5473L38.9706 40.3611C38.8298 40.4328 38.6889 40.4807 38.5246 40.5046L38.7124 40.8635L49.6993 34.3799L49.6993 34.2363L49.4176 33.7578C49.3707 34.0928 49.1594 34.3799 48.8776 34.5473Z" fill="url(#paint_linear_6)" fill-rule="evenodd" />
				</g>
			</g>
		</g>
	</g>
</svg>
