<svg viewBox="0 0 63.5503 56.8149" xmlns="http://www.w3.org/2000/svg" xmlns:xlink="http://www.w3.org/1999/xlink" width="63.550262" height="56.814941" fill="none" customFrame="#000000">
	<path id="Vector" d="M52.2511 18.4148C51.5918 18.1867 50.9087 17.971 50.2053 17.767C50.3209 17.2929 50.427 16.8249 50.5214 16.3649C52.07 8.81153 51.0574 2.72647 47.6 0.723007C44.2847 -1.19805 38.8628 0.80496 33.387 5.59344C32.8604 6.0539 32.3324 6.54141 31.8045 7.05233C31.4529 6.71429 31.1017 6.38762 30.7515 6.07515C25.0127 0.954997 19.2604 -1.20271 15.8063 0.806552C12.4942 2.73317 11.5133 8.45371 12.9073 15.6121C13.0419 16.3035 13.1992 17.0096 13.3772 17.7275C12.5631 17.9597 11.7771 18.2073 11.0251 18.4707C4.29692 20.8277 0 24.5219 0 28.3536C0 32.3111 4.61275 36.2805 11.6207 38.6874C12.1737 38.8773 12.7476 39.0569 13.3389 39.2274C13.147 40.0038 12.98 40.7647 12.8399 41.5068C11.5107 48.541 12.5487 54.1264 15.852 56.0409C19.264 58.0179 24.9903 55.9857 30.5662 51.0881C31.0069 50.701 31.4492 50.2904 31.8923 49.8601C32.4666 50.4158 33.04 50.9417 33.6104 51.435C39.0113 56.1052 44.3457 57.991 47.6459 56.0712C51.0545 54.0884 52.1623 48.0884 50.7241 40.7884C50.6142 40.2308 50.4864 39.6613 50.3429 39.0816C50.745 38.9621 51.1398 38.8388 51.5247 38.7106C58.8101 36.2851 63.5503 32.364 63.5503 28.3536C63.5503 24.508 59.1148 20.789 52.2511 18.4148Z" fill="rgb(83,193,222)" fill-rule="nonzero" />
</svg>
