<svg viewBox="0 0 25 23.4526" xmlns="http://www.w3.org/2000/svg" xmlns:xlink="http://www.w3.org/1999/xlink" width="25.000000" height="23.452576" fill="none" customFrame="#000000">
	<g id="web development">
		<g id="Group">
			<g id="Group">
				<path id="Vector" d="M0 0L0 20.5205L8.02402 20.5205L8.02402 21.9877L6.55742 21.9877L6.55742 23.4526L18.4425 23.4526L18.4425 21.9877L16.9759 21.9877L16.9759 20.5205L25 20.5205L25 0L0 0ZM15.511 21.9877L9.48897 21.9877L9.48897 20.5205L15.511 20.5205L15.511 21.9877L15.511 21.9877ZM23.5351 19.0556L1.46489 19.0556L1.46489 16.1222L23.5351 16.1222L23.5351 19.0556L23.5351 19.0556ZM23.5351 14.6573L1.46489 14.6573L1.46489 1.46494L23.5351 1.46494L23.5351 14.6573L23.5351 14.6573Z" fill="rgb(0,0,0)" fill-rule="nonzero" />
			</g>
		</g>
		<g id="Group">
			<g id="Group">
				<path id="Vector" d="M9.95816 5.4134L8.92232 4.37756L5.23877 8.06111L8.92232 11.7446L9.95816 10.7088L7.31045 8.06111L9.95816 5.4134Z" fill="rgb(0,0,0)" fill-rule="nonzero" />
			</g>
		</g>
		<g id="Group">
			<g id="Group">
				<path id="Vector" d="M16.0777 4.37756L15.0419 5.4134L17.6896 8.06111L15.0419 10.7088L16.0777 11.7446L19.7612 8.06111L16.0777 4.37756Z" fill="rgb(0,0,0)" fill-rule="nonzero" />
			</g>
		</g>
		<g id="Group">
			<g id="Group">
				<path id="Vector" d="M8.71635 0L0 0L0 1.46494L8.71635 1.46494L8.71635 0Z" fill="rgb(0,0,0)" fill-rule="evenodd" transform="matrix(0.1951,-0.9808,0.9808,0.1951,10.9313,12.193)" />
			</g>
		</g>
	</g>
</svg>
